<?xml version="1.0" encoding="UTF-8"?>
<svg width="2500px" height="2438px" viewBox="0 0 2500 2438" version="1.1" xmlns="http://www.w3.org/2000/svg" xmlns:xlink="http://www.w3.org/1999/xlink">
    <!-- Generator: Sketch 52.6 (67491) - http://www.bohemiancoding.com/sketch -->
    <title>adobe-xd-1-logo-svgrepo-com</title>
    <desc>Created with Sketch.</desc>
    <g id="Page-1" stroke="none" stroke-width="1" fill="none" fill-rule="evenodd">
        <g id="adobe-xd-1-logo-svgrepo-com">
            <path d="M2057.3,2437.5 L442.7,2437.5 C197.9,2437.5 0,2239.6 0,1994.8 L0,442.7 C0,197.9 197.9,0 442.7,0 L2057.3,0 C2302.1,0 2500,197.9 2500,442.7 L2500,1994.8 C2500,2239.6 2302.1,2437.5 2057.3,2437.5 Z" id="Path" fill="#030104"></path>
            <path d="M2017.7,2333.3 L482.3,2333.3 C274,2333.3 104.2,2163.5 104.2,1955.2 L104.2,482.3 C104.2,274 274,104.2 482.3,104.2 L2016.7,104.2 C2226.1,104.2 2394.8,274 2394.8,482.3 L2394.8,1954.2 C2395.8,2163.5 2226,2333.3 2017.7,2333.3 Z" id="Path" fill="#030104"></path>
            <path d="M988.5,1140.6 L1280.2,1701 C1285.4,1709.3 1282.3,1717.7 1273.9,1717.7 L1092.6,1717.7 C1081.1,1717.7 1075.9,1714.6 1070.7,1704.2 C1004,1566.7 936.3,1429.2 866.5,1281.3 L864.4,1281.3 C801.9,1420.9 733.1,1567.8 666.5,1705.3 C661.3,1713.6 656.1,1716.8 647.7,1716.8 L476,1716.8 C465.6,1716.8 464.5,1708.5 469.8,1702.2 L755.2,1158.4 L479.2,608.4 C472.9,600.1 479.2,593.8 485.4,593.8 L664.6,593.8 C675,593.8 679.2,595.9 683.3,605.3 C748.9,742.8 815.6,884.5 878.1,1023 L880.2,1023 C940.6,885.5 1007.3,742.8 1071.9,606.3 C1077.1,598 1080.2,592.8 1090.7,592.8 L1258.4,592.8 C1266.7,592.8 1269.9,599.1 1264.7,607.4 L988.5,1140.6 Z M1331.3,1310.4 C1331.3,1067.7 1492.8,878.1 1749,878.1 C1770.9,878.1 1782.3,878.1 1803.2,880.2 L1803.2,604.2 C1803.2,597.9 1808.4,593.8 1813.6,593.8 L1978.2,593.8 C1986.5,593.8 1988.6,596.9 1988.6,602.1 L1988.6,1558.4 C1988.6,1586.5 1988.6,1621.9 1993.8,1660.5 C1993.8,1666.8 1991.7,1668.8 1985.5,1672 C1898,1713.7 1806.3,1732.4 1718.8,1732.4 C1492.7,1733.3 1331.2,1593.8 1331.3,1310.4 Z M1803.1,1043.8 C1788.5,1037.5 1767.7,1033.4 1742.7,1033.4 C1611.4,1033.4 1519.8,1134.4 1519.8,1302.2 C1519.8,1493.9 1613.6,1571 1731.3,1571 C1756.3,1571 1783.4,1567.9 1803.2,1559.5 L1803.2,1043.8 L1803.1,1043.8 Z" id="Shape" fill="#FFFFFF" fill-rule="nonzero"></path>
        </g>
    </g>
</svg>