<?xml version="1.0" encoding="UTF-8"?>
<svg width="256px" height="256px" viewBox="0 0 256 256" version="1.1" xmlns="http://www.w3.org/2000/svg" xmlns:xlink="http://www.w3.org/1999/xlink">
    <!-- Generator: Sketch 52.6 (67491) - http://www.bohemiancoding.com/sketch -->
    <title>javascript-logo-svgrepo-com</title>
    <desc>Created with Sketch.</desc>
    <g id="Page-1" stroke="none" stroke-width="1" fill="none" fill-rule="evenodd">
        <g id="javascript-logo-svgrepo-com">
            <polygon id="Path" fill="#030104" points="0 0 256 0 256 256 0 256"></polygon>
            <path d="M67.312,213.932 L86.902,202.076 C90.682,208.777 94.12,214.447 102.367,214.447 C110.272,214.447 115.257,211.355 115.257,199.327 L115.257,117.529 L139.314,117.529 L139.314,199.667 C139.314,224.584 124.708,235.926 103.398,235.926 C84.153,235.926 72.982,225.959 67.311,213.93 M152.381,211.354 L171.969,200.013 C177.126,208.434 183.828,214.62 195.684,214.62 C205.653,214.62 212.009,209.636 212.009,202.762 C212.009,194.514 205.479,191.592 194.481,186.782 L188.468,184.202 C171.111,176.815 159.598,167.535 159.598,147.945 C159.598,129.901 173.345,116.153 194.826,116.153 C210.12,116.153 221.118,121.481 229.022,135.4 L210.29,147.43 C206.165,140.041 201.699,137.12 194.825,137.12 C187.779,137.12 183.311,141.588 183.311,147.43 C183.311,154.647 187.779,157.57 198.089,162.038 L204.103,164.615 C224.553,173.38 236.066,182.315 236.066,202.419 C236.066,224.073 219.054,235.929 196.199,235.929 C173.86,235.929 159.425,225.275 152.38,211.355" id="Shape" fill="#FFFFFF" fill-rule="nonzero"></path>
        </g>
    </g>
</svg>