<?xml version="1.0" encoding="UTF-8"?>
<svg width="111px" height="108px" viewBox="0 0 111 108" version="1.1" xmlns="http://www.w3.org/2000/svg" xmlns:xlink="http://www.w3.org/1999/xlink">
    <!-- Generator: Sketch 52.6 (67491) - http://www.bohemiancoding.com/sketch -->
    <title>microsoft-excel-2013-logo-svgrepo-com</title>
    <desc>Created with Sketch.</desc>
    <g id="Page-1" stroke="none" stroke-width="1" fill="none" fill-rule="evenodd">
        <g id="microsoft-excel-2013-logo-svgrepo-com">
            <path d="M57.55,0 L64.975,0 L64.975,10 C77.488,10 90,10.025 102.512,9.962 C104.625,10.049 106.95,9.9 108.787,11.162 C110.074,13.012 109.925,15.362 110.012,17.487 C109.95,39.187 109.975,60.875 109.988,82.562 C109.926,86.2 110.325,89.912 109.563,93.5 C109.063,96.1 105.938,96.162 103.85,96.25 C90.9,96.287 77.938,96.225 64.975,96.25 L64.975,107.5 L57.212,107.5 C38.162,104.037 19.074,100.838 7.10542736e-15,97.5 L7.10542736e-15,10.013 C19.188,6.675 38.375,3.388 57.55,0 Z" id="Path" fill="#030104"></path>
            <polygon id="Path" fill="#FFFFFF" points="64.975 13.75 106.225 13.75 106.225 92.5 64.975 92.5 64.975 85 74.975 85 74.975 76.25 64.975 76.25 64.975 71.25 74.975 71.25 74.975 62.5 64.975 62.5 64.975 57.5 74.975 57.5 74.975 48.75 64.975 48.75 64.975 43.75 74.975 43.75 74.975 35 64.975 35 64.975 30 74.975 30 74.975 21.25 64.975 21.25"></polygon>
            <polygon id="Path" fill="#030104" points="79.975 21.25 97.475 21.25 97.475 30 79.975 30"></polygon>
            <path d="M37.025,32.962 C39.85,32.762 42.688,32.587 45.525,32.45 C42.1925878,39.2936913 38.8302222,46.1227568 35.438,52.937 C38.876,59.937 42.387,66.887 45.837,73.887 C42.8278202,73.7143219 39.8197602,73.5226514 36.813,73.312 C34.688,68.099 32.1,63.062 30.575,57.612 C28.876,62.687 26.45,67.474 24.501,72.45 C21.763,72.412 19.025,72.3 16.288,72.187 C19.5,65.9 22.6,59.562 25.912,53.312 C23.1,46.874 20.012,40.562 17.112,34.162 C19.862,33.999 22.612,33.837 25.362,33.687 C27.224,38.575 29.261,43.399 30.8,48.412 C32.449,43.1 34.912,38.1 37.025,32.962 Z" id="Path" fill="#FFFFFF"></path>
            <path d="M79.975,35 L97.475,35 L97.475,43.75 L79.975,43.75 L79.975,35 Z M79.975,48.75 L97.475,48.75 L97.475,57.5 L79.975,57.5 L79.975,48.75 Z M79.975,62.5 L97.475,62.5 L97.475,71.25 L79.975,71.25 L79.975,62.5 Z M79.975,76.25 L97.475,76.25 L97.475,85 L79.975,85 L79.975,76.25 Z" id="Shape" fill="#030104" fill-rule="nonzero"></path>
        </g>
    </g>
</svg>