<?xml version="1.0" encoding="UTF-8"?>
<svg width="111px" height="108px" viewBox="0 0 111 108" version="1.1" xmlns="http://www.w3.org/2000/svg" xmlns:xlink="http://www.w3.org/1999/xlink">
    <!-- Generator: Sketch 52.6 (67491) - http://www.bohemiancoding.com/sketch -->
    <title>microsoft-powerpoint-2013-logo-svgrepo-com</title>
    <desc>Created with Sketch.</desc>
    <g id="Page-1" stroke="none" stroke-width="1" fill="none" fill-rule="evenodd">
        <g id="microsoft-powerpoint-2013-logo-svgrepo-com">
            <path d="M57.893,0 L64.98,0 L64.98,11.25 C78.343,11.325 91.718,11.112 105.068,11.312 C107.943,11.037 110.193,13.274 109.906,16.149 C110.118,39.499 109.856,62.861 110.031,86.224 C109.906,88.749 110.281,91.549 108.831,93.786 C107.006,95.111 104.631,94.936 102.493,95.036 C89.993,94.974 77.493,94.999 64.98,94.999 L64.98,107.499 L57.206,107.499 C38.156,104.024 19.068,100.849 0.006,97.499 C-0.007,68.337 0.006,39.174 0.006,10.024 C19.292,6.688 38.58,3.288 57.893,0 Z" id="Path" fill="#030104"></path>
            <path d="M64.98,15 L106.23,15 L106.23,91.25 L64.98,91.25 L64.98,81.25 L94.98,81.25 L94.98,76.25 L64.98,76.25 L64.98,70 L94.98,70 L94.98,65 L64.993,65 C64.98,62.55 64.98,60.1 64.969,57.65 C69.919,59.187 75.556,59.15 79.981,56.174 C84.769,53.337 87.269,47.924 87.681,42.524 C82.194,42.486 76.706,42.499 71.231,42.499 C71.219,37.061 71.293,31.624 71.119,26.199 C69.069,26.599 67.019,27.024 64.981,27.461 L64.981,15 L64.98,15 Z" id="Path" fill="#FFFFFF"></path>
            <path d="M73.743,23.587 C82.431,23.987 89.73,31.299 90.193,39.962 C84.705,40.025 79.218,40 73.73,40 C73.73,34.525 73.718,29.05 73.743,23.587 Z" id="Path" fill="#030104"></path>
            <path d="M20.055,33.025 C26.843,33.35 35.068,30.337 40.693,35.425 C46.081,41.963 44.656,53.987 36.668,57.901 C33.831,59.35 30.581,59.151 27.493,59.05 C27.48,63.938 27.469,68.825 27.48,73.713 C25.0012592,73.4976744 22.521916,73.2893403 20.042,73.088 C19.93,59.737 19.906,46.375 20.055,33.025 Z" id="Path" fill="#FFFFFF"></path>
            <path d="M27.48,39.788 C29.943,39.675 32.993,39.226 34.656,41.538 C36.081,43.988 36.006,47.213 34.818,49.738 C33.393,52.313 30.168,52.063 27.68,52.363 C27.417,48.175 27.443,43.987 27.48,39.788 Z" id="Path" fill="#030104"></path>
        </g>
    </g>
</svg>